<svg width="144" height="142" viewBox="0 0 144 142" fill="none" xmlns="http://www.w3.org/2000/svg">
<path d="M128.306 24.2184C136.031 33.3833 139.148 45.669 139.253 58.0566C139.389 70.4082 136.508 82.9296 128.783 99.5462C121.058 116.163 108.421 136.885 91.6156 141.036C74.8101 145.187 53.7968 132.779 37.8452 116.163C21.8479 99.5462 10.8705 78.7345 14.74 61.7146C18.5617 44.6946 37.1625 31.5024 53.1559 22.3056C69.1472 13.1407 82.4634 8.00513 95.3377 8.47635C108.18 8.94558 120.581 15.0555 128.306 24.2184Z" fill="white"/>
<path d="M50.5742 63.0231L48.1654 63.484L56.9188 109.515L59.3276 109.054L50.5742 63.0231Z" fill="#747474"/>
<path d="M48.8545 60.2231C47.698 60.2231 40.0029 59.1968 39.6386 59.1968C39.2744 59.1968 38.3846 59.4284 38.3846 60.0254C38.3846 62.0461 44.8576 63.8351 51.4321 63.8351C58.0066 63.8351 48.8545 60.2231 48.8545 60.2231Z" fill="black"/>
<path d="M27.2997 132.765C41.1619 132.765 52.3994 121.493 52.3994 107.587C52.3994 93.6812 41.1619 82.4084 27.2997 82.4084C13.4375 82.4084 2.19995 93.6812 2.19995 107.587C2.19995 121.493 13.4375 132.765 27.2997 132.765Z" stroke="#FD8369" stroke-width="2.67981" stroke-linecap="round" stroke-linejoin="round"/>
<path d="M116.839 132.765C130.701 132.765 141.938 121.493 141.938 107.587C141.938 93.6812 130.701 82.4084 116.839 82.4084C102.977 82.4084 91.739 93.6812 91.739 107.587C91.739 121.493 102.977 132.765 116.839 132.765Z" stroke="#FD8369" stroke-width="2.67981" stroke-linecap="round" stroke-linejoin="round"/>
<path d="M100.488 59.2241L84.4126 64.9474L84.9825 66.5581L101.058 60.8348L100.488 59.2241Z" fill="black"/>
<path d="M117.23 104.586L94.4291 62.8084L92.4963 63.8698L115.298 105.648L117.23 104.586Z" fill="#747474"/>
<path d="M104.348 81.8973H51.0419V83.4188H104.348V81.8973Z" fill="#747474"/>
<path d="M102.141 80.8463L59.2727 113.76L61.4806 116.654L104.349 83.74L102.141 80.8463Z" fill="#747474"/>
<path d="M28.7986 105.115C32.7914 105.115 58.964 106.792 58.964 106.792C57.8852 110.041 54.161 119.785 54.161 119.785C52.2721 119.244 29.6087 108.687 29.6087 108.687L28.7986 105.115Z" fill="#747474"/>
<path d="M52.1832 80.6882L25.6516 105.971L27.5133 107.937L54.0449 82.6541L52.1832 80.6882Z" fill="#747474"/>
<path d="M56.5536 121.171C60.3769 121.171 63.4764 118.061 63.4764 114.226C63.4764 110.391 60.3769 107.281 56.5536 107.281C52.7302 107.281 49.6307 110.391 49.6307 114.226C49.6307 118.061 52.7302 121.171 56.5536 121.171Z" fill="#747474"/>
<path d="M55.3613 95.1655C54.7423 95.7046 50.8589 99.3346 50.8589 99.3346L60.1225 109.823L61.8343 108.264L58.1957 98.0807L55.3613 95.1655Z" fill="black"/>
<path d="M71.6672 15.1776L52.4901 0.723328L29.6421 31.2274L48.8191 45.6816L71.6672 15.1776Z" fill="#CD0F0F"/>
<path d="M68.7132 52.6496C70.8251 53.3684 85.5306 65.8897 87.115 68.2339C85.8769 73.9125 60.4428 97.6074 57.8811 98.6098C56.5077 97.7951 55.0706 96.04 55.0706 95.0357C55.819 93.8376 67.3796 75.6297 67.3796 75.6297C67.3796 75.6297 59.6088 51.6372 68.7132 52.6496Z" fill="#56CAD8"/>
<path d="M89.1895 66.7796C90.6687 66.5539 91.6524 64.9507 91.3867 63.1987C91.121 61.4468 89.7065 60.2095 88.2274 60.4352C86.7483 60.6609 85.7646 62.2642 86.0303 64.0161C86.296 65.7681 87.7104 67.0054 89.1895 66.7796Z" fill="#DE8E68"/>
<path d="M96.1187 64.6729C97.4881 64.4639 98.404 63.0139 98.1644 61.4342C97.9249 59.8545 96.6206 58.7433 95.2512 58.9522C93.8818 59.1612 92.9659 60.6112 93.2055 62.1909C93.4451 63.7707 94.7494 64.8819 96.1187 64.6729Z" fill="#DE8E68"/>
<path d="M51.7744 41.3941C50.2796 42.3246 45.1243 48.0771 45.1243 54.3727C45.1243 62.4793 61.3605 75.1564 67.2363 79.1319C66.1017 82.077 54.8656 106.273 54.4973 107.411C55.3732 108.136 58.0025 109.118 58.9819 109.118C64.3919 104.776 79.4418 81.7635 79.7006 79.5452C79.9593 77.3268 67.1766 53.1248 67.1766 53.1248L51.7744 41.3941Z" fill="#74D5DE"/>
<path d="M82.529 33.2076C82.7281 34.5554 83.4984 40.1961 83.8706 40.857C84.2428 41.5179 94.8062 58.1585 95.3774 58.9891C95.2919 59.7059 94.0637 60.88 93.2078 60.7362C92.123 59.9635 82.0135 46.9789 82.0135 46.9789C82.0135 46.9789 71.6492 33.4093 82.529 33.2076Z" fill="#D37C59"/>
<path d="M79.3105 25.3605C81.5 24.7016 83.5283 31.0312 83.1561 33.4093C81.9618 34.8409 78.7313 35.1564 77.9311 34.785C77.7281 33.553 77.0534 26.0394 79.3105 25.3605Z" fill="#FCC486"/>
<path d="M72.8215 17.5075C76.0241 17.5075 80.5843 21.1994 80.5843 24.9093C80.5843 33.2376 70.9843 54.2929 68.0683 54.9797C63.9799 55.9441 51.0359 43.8441 51.0359 41.6397C51.0419 37.0732 66.3664 17.5075 72.8215 17.5075Z" fill="#FED385"/>
<path d="M76.4165 12.33C76.2891 12.8711 73.9642 17.0302 72.9551 18.1504C73.0626 18.6935 75.2441 20.6103 76.4165 20.5464C76.8305 19.9235 78.4348 17.0941 79.032 16.6509C79.6291 16.2076 78.2537 12.4737 76.4165 12.33Z" fill="#D37C59"/>
<path d="M51.7744 41.3941C56.1415 43.0314 73.2714 40.236 78.0843 37.9858C77.7897 33.5211 77.8116 24.472 71.0918 15.9441" stroke="#CD0F0F" stroke-width="1.78654" stroke-miterlimit="10" stroke-linecap="round"/>
<path d="M86.2095 13.5649C88.2091 10.0906 87.8235 6.11198 85.3483 4.6784C82.873 3.24482 79.2454 4.89918 77.2458 8.37351C75.2461 11.8478 75.6317 15.8265 78.107 17.2601C80.5822 18.6936 84.2099 17.0393 86.2095 13.5649Z" fill="#DE8E68"/>
<path d="M76.6055 8.78187C76.5657 8.01913 77.8873 4.12355 80.0291 2.99142C82.1708 1.85929 83.5104 2.638 85.0033 2.638C86.3448 2.638 87.4097 1.98308 88.8886 2.07493C90.8094 2.19473 91.0503 4.10359 91.3508 5.0081C91.7489 6.20612 93.6996 6.32592 94.5933 8.60217C95.073 9.82615 92.7322 12.2162 90.7099 12.2162C89.5276 12.2162 87.7242 11.5373 87.1967 11.2179C87.3082 10.7521 87.3959 10.2809 87.4595 9.80618C86.7449 9.80618 82.3221 8.91765 81.9618 8.93762C81.6016 8.95758 80.2799 10.3034 80.1585 10.5849C79.7484 10.4691 77.4057 10.3293 76.6055 8.78187Z" fill="#FD8369"/>
<path d="M76.8503 11.8368C77.7836 11.8368 78.5402 11.0779 78.5402 10.1416C78.5402 9.20538 77.7836 8.44641 76.8503 8.44641C75.917 8.44641 75.1604 9.20538 75.1604 10.1416C75.1604 11.0779 75.917 11.8368 76.8503 11.8368Z" fill="#DE8E68"/>
<path d="M69.4299 19.8397C73.5143 18.1824 79.1414 28.6751 79.3106 32.4688C78.6079 33.6109 71.1994 36.3564 69.6966 36.1368C67.5171 33.6109 64.8777 21.6866 69.4299 19.8397Z" fill="#FED892"/>
<path d="M70.0748 35.5577C70.6162 37.0193 72.8734 43.7442 73.5581 45.5253C74.2429 47.3064 84.438 60.7003 86.0085 61.9962C87.8636 62.5133 88.606 61.7106 88.7772 60.6803C88.407 59.648 80.8671 43.1772 80.2978 41.6018C79.7286 40.0264 78.2696 33.3234 78.2417 32.4349C76.9598 31.6043 70.7914 33.1517 70.0748 35.5577Z" fill="#DE8E68"/>
<path d="M51.4839 42.1269L32.3058 27.6727" stroke="#F9F9F9" stroke-width="1.78654" stroke-miterlimit="10"/>
<path d="M69.0278 18.7015L49.8497 4.24933" stroke="#F9F9F9" stroke-width="1.78654" stroke-miterlimit="10"/>
<path d="M54.9054 107.048C54.5471 107.789 52.3994 112.657 52.3994 112.657L65.0388 118.647L66.0002 116.538L58.6634 108.617L54.9054 107.048Z" fill="black"/>
<path d="M27.2997 111.039C29.2003 111.039 30.7412 109.494 30.7412 107.587C30.7412 105.68 29.2003 104.135 27.2997 104.135C25.399 104.135 23.8582 105.68 23.8582 107.587C23.8582 109.494 25.399 111.039 27.2997 111.039Z" fill="#FD8369"/>
<path d="M116.839 111.039C118.739 111.039 120.28 109.494 120.28 107.587C120.28 105.68 118.739 104.135 116.839 104.135C114.938 104.135 113.397 105.68 113.397 107.587C113.397 109.494 114.938 111.039 116.839 111.039Z" fill="#FD8369"/>
<path d="M52.2263 28.2697C54.1996 28.2697 55.7992 26.6651 55.7992 24.6856C55.7992 22.7062 54.1996 21.1015 52.2263 21.1015C50.2531 21.1015 48.6534 22.7062 48.6534 24.6856C48.6534 26.6651 50.2531 28.2697 52.2263 28.2697Z" fill="#F9F9F9"/>
</svg>
