<svg width="64" height="64" viewBox="0 0 64 64" fill="none" xmlns="http://www.w3.org/2000/svg">
<g clip-path="url(#clip0)">
<path d="M58.1082 54.925H5.89175C2.67375 54.925 0 52.3254 0 49.0332V14.8917C0 11.6737 2.59962 9 5.89175 9H58.1082C61.3262 9 64 11.5996 64 14.8917V49.0334C64 52.2512 61.4004 54.925 58.1082 54.925Z" fill="#DFDFDF"/>
<path d="M58.1082 9.03748H32V54.9625H58.1082C61.4004 54.9625 64 52.2887 64 49.0707V14.9292C64 11.637 61.3263 9.03748 58.1082 9.03748Z" fill="#DFDFDF"/>
<path d="M19.9504 35.1458C17.1819 35.1458 14.9297 32.8934 14.9297 30.1249C14.9297 27.3564 17.1819 25.104 19.9504 25.104C22.7189 25.104 24.9713 27.3564 24.9713 30.1249C24.9713 32.8934 22.7189 35.1458 19.9504 35.1458Z" fill="#7D7E8F"/>
<path d="M27.9836 46.9292H11.917C10.8815 46.9292 10.042 46.0897 10.042 45.0542C10.042 39.5907 14.4869 35.1458 19.9504 35.1458C25.4139 35.1458 29.8587 39.5907 29.8587 45.0542C29.8586 46.0897 29.0191 46.9292 27.9836 46.9292Z" fill="#7D7E8F"/>
<path d="M52.0818 30.8625H38.0234C36.9879 30.8625 36.1484 30.023 36.1484 28.9875C36.1484 27.952 36.9879 27.1125 38.0234 27.1125H52.0818C53.1173 27.1125 53.9568 27.952 53.9568 28.9875C53.9568 30.023 53.1173 30.8625 52.0818 30.8625Z" fill="#747474"/>
<path d="M52.0837 20.8208H11.917C10.8815 20.8208 10.042 19.9813 10.042 18.9458C10.042 17.9103 10.8815 17.0708 11.917 17.0708H52.0837C53.1192 17.0708 53.9587 17.9103 53.9587 18.9458C53.9587 19.9813 53.1192 20.8208 52.0837 20.8208Z" fill="#747474"/>
<path d="M52.0818 38.8959H38.0234C36.9879 38.8959 36.1484 38.0564 36.1484 37.0209C36.1484 35.9854 36.9879 35.1459 38.0234 35.1459H52.0818C53.1173 35.1459 53.9568 35.9854 53.9568 37.0209C53.9568 38.0564 53.1173 38.8959 52.0818 38.8959Z" fill="#747474"/>
<path d="M48.0651 46.9294H38.0234C36.9879 46.9294 36.1484 46.0899 36.1484 45.0544C36.1484 44.0189 36.9879 43.1794 38.0234 43.1794H48.0651C49.1006 43.1794 49.9401 44.0189 49.9401 45.0544C49.9401 46.0899 49.1006 46.9294 48.0651 46.9294Z" fill="#747474"/>
<path d="M53.9584 18.9458C53.9584 17.9103 53.1189 17.0708 52.0834 17.0708H32V20.8208H52.0834C53.1189 20.8208 53.9584 19.9814 53.9584 18.9458Z" fill="#747474"/>
</g>
<defs>
<clipPath id="clip0">
<rect width="64" height="64" fill="white"/>
</clipPath>
</defs>
</svg>
