<svg width="120" height="98" viewBox="0 0 120 98" fill="none" xmlns="http://www.w3.org/2000/svg">
<path d="M90.7941 92.8203H9.20586C4.17773 92.8203 0 88.7584 0 83.6145V30.2684C0 25.2402 4.06191 21.0625 9.20586 21.0625H90.7941C95.8223 21.0625 100 25.1244 100 30.2684V83.6146C100 88.6426 95.9381 92.8203 90.7941 92.8203Z" fill="#DFDFDF"/>
<path d="M90.7941 21.121H50V92.8789H90.7941C95.9381 92.8789 100 88.7011 100 83.673V30.3269C100 25.1828 95.8223 21.121 90.7941 21.121Z" fill="#DFDFDF"/>
<path d="M31.173 61.9153C26.8473 61.9153 23.3281 58.396 23.3281 54.0702C23.3281 49.7444 26.8473 46.225 31.173 46.225C35.4988 46.225 39.0181 49.7444 39.0181 54.0702C39.0181 58.396 35.4988 61.9153 31.173 61.9153Z" fill="#7D7E8F"/>
<path d="M43.7242 80.3269H18.6201C17.0021 80.3269 15.6904 79.0151 15.6904 77.3972C15.6904 68.8605 22.6355 61.9153 31.1723 61.9153C39.709 61.9153 46.6541 68.8605 46.6541 77.3972C46.6539 79.0151 45.3422 80.3269 43.7242 80.3269Z" fill="#7D7E8F"/>
<path d="M81.3783 55.2227H59.4121C57.7941 55.2227 56.4824 53.9109 56.4824 52.293C56.4824 50.675 57.7941 49.3633 59.4121 49.3633H81.3783C82.9963 49.3633 84.308 50.675 84.308 52.293C84.308 53.9109 82.9963 55.2227 81.3783 55.2227Z" fill="#747474"/>
<path d="M81.3807 39.5325H18.6201C17.0021 39.5325 15.6904 38.2208 15.6904 36.6028C15.6904 34.9848 17.0021 33.6731 18.6201 33.6731H81.3807C82.9986 33.6731 84.3103 34.9848 84.3103 36.6028C84.3103 38.2208 82.9986 39.5325 81.3807 39.5325Z" fill="#747474"/>
<path d="M81.3783 67.7748H59.4121C57.7941 67.7748 56.4824 66.4631 56.4824 64.8451C56.4824 63.2271 57.7941 61.9154 59.4121 61.9154H81.3783C82.9963 61.9154 84.308 63.2271 84.308 64.8451C84.308 66.4631 82.9963 67.7748 81.3783 67.7748Z" fill="#747474"/>
<path d="M75.1021 80.3271H59.4121C57.7941 80.3271 56.4824 79.0154 56.4824 77.3974C56.4824 75.7794 57.7941 74.4677 59.4121 74.4677H75.1021C76.7201 74.4677 78.0318 75.7794 78.0318 77.3974C78.0318 79.0154 76.7201 80.3271 75.1021 80.3271Z" fill="#747474"/>
<path d="M84.31 36.6028C84.31 34.9848 82.9982 33.6731 81.3803 33.6731H50V39.5325H81.3803C82.9982 39.5325 84.31 38.2209 84.31 36.6028Z" fill="#747474"/>
<circle cx="83.5" cy="26.5" r="18.5" stroke="#1C1720" stroke-width="8"/>
<rect x="92" y="42.1436" width="8" height="30" rx="2.93" transform="rotate(-45 92 42.1436)" fill="#1C1720"/>
</svg>
