<svg width="12" height="13" viewBox="0 0 12 13" fill="none" xmlns="http://www.w3.org/2000/svg">
<path d="M5.99996 1.33335C7.07262 1.33335 8.07996 1.74269 8.83596 2.48669C9.58663 3.22469 9.99996 4.20602 9.99996 5.24669C9.99996 6.28735 9.58662 7.26669 8.83662 8.00602L5.99996 10.7954L3.16396 8.00469C2.41396 7.26669 2.00062 6.28735 2.00062 5.24535C2.00062 4.20335 2.41396 3.22402 3.16396 2.48469C3.92089 1.74258 4.93993 1.32888 5.99996 1.33335ZM5.99996 2.10972e-05C4.58964 -0.00386136 3.23462 0.548256 2.22862 1.53669C1.73421 2.01988 1.34135 2.59702 1.07313 3.23419C0.804916 3.87135 0.666748 4.5557 0.666748 5.24702C0.666748 5.93834 0.804916 6.62269 1.07313 7.25986C1.34135 7.89702 1.73421 8.47416 2.22862 8.95736L5.99996 12.666L9.77129 8.95602C10.2657 8.47294 10.6585 7.89592 10.9267 7.25886C11.1949 6.62181 11.3331 5.93757 11.3331 5.24635C11.3331 4.55514 11.1949 3.8709 10.9267 3.23385C10.6585 2.59679 10.2657 2.01977 9.77129 1.53669C8.76534 0.548195 7.41029 -0.00393344 5.99996 2.10972e-05ZM5.99996 3.66602C6.44529 3.66602 6.86396 3.83935 7.17862 4.15335C7.49116 4.46613 7.66672 4.8902 7.66672 5.33235C7.66672 5.77451 7.49116 6.19858 7.17862 6.51135C6.86329 6.82602 6.44529 6.99869 5.99996 6.99869C5.55463 6.99869 5.13663 6.82535 4.82129 6.51135C4.50876 6.19858 4.3332 5.77451 4.3332 5.33235C4.3332 4.8902 4.50876 4.46613 4.82129 4.15335C4.97592 3.99842 5.15967 3.87561 5.36195 3.79197C5.56424 3.70833 5.78107 3.66553 5.99996 3.66602ZM5.99996 2.99935C5.61601 2.99912 5.23792 3.09361 4.89923 3.27444C4.56053 3.45528 4.27167 3.71688 4.05826 4.03607C3.84485 4.35525 3.71348 4.72214 3.67579 5.10424C3.6381 5.48634 3.69526 5.87184 3.84219 6.22656C3.98913 6.58128 4.22131 6.89428 4.51815 7.13781C4.81499 7.38134 5.16732 7.54787 5.54392 7.62265C5.92052 7.69744 6.30975 7.67816 6.67712 7.56653C7.04448 7.45489 7.37864 7.25436 7.64996 6.98269C8.08731 6.54481 8.33297 5.95123 8.33297 5.33235C8.33297 4.71347 8.08731 4.1199 7.64996 3.68202C7.43346 3.46515 7.17624 3.2932 6.89308 3.17605C6.60992 3.05889 6.3064 2.99884 5.99996 2.99935Z" fill="#747474"/>
</svg>
