<svg width="20" height="14" viewBox="0 0 20 14" fill="none" xmlns="http://www.w3.org/2000/svg">
<path d="M19.8209 6.43C19.7379 6.311 17.7589 3.486 15.0279 1.555C13.6119 0.552 11.8259 0 9.99995 0C8.17495 0 6.38895 0.552 4.96995 1.555C2.23895 3.486 0.261946 6.311 0.178946 6.43C0.0625987 6.5975 0.000244141 6.79656 0.000244141 7.0005C0.000244141 7.20444 0.0625987 7.4035 0.178946 7.571C0.261946 7.69 2.23895 10.515 4.96995 12.446C6.38895 13.448 8.17495 14 9.99995 14C11.8259 14 13.6119 13.448 15.0279 12.445C17.7589 10.514 19.7379 7.689 19.8209 7.57C19.9376 7.40282 20.0002 7.20387 20.0002 7C20.0002 6.79613 19.9376 6.59718 19.8209 6.43ZM9.99995 10.5C8.06595 10.5 6.49995 8.93 6.49995 7C6.49995 5.066 8.06595 3.5 9.99995 3.5C11.9299 3.5 13.4999 5.066 13.4999 7C13.4999 8.93 11.9299 10.5 9.99995 10.5ZM11.9999 7C11.9999 8.102 11.1019 9 9.99995 9C9.60438 9 9.2177 8.8827 8.88881 8.66294C8.55991 8.44318 8.30356 8.13082 8.15219 7.76537C8.00081 7.39991 7.96121 6.99778 8.03838 6.60982C8.11555 6.22186 8.30603 5.86549 8.58573 5.58579C8.86544 5.30608 9.2218 5.1156 9.60977 5.03843C9.99773 4.96126 10.3999 5.00087 10.7653 5.15224C11.1308 5.30362 11.4431 5.55996 11.6629 5.88886C11.8826 6.21776 11.9999 6.60444 11.9999 7Z" fill="#747474"/>
</svg>
