<svg width="143" height="119" viewBox="0 0 143 119" fill="none" xmlns="http://www.w3.org/2000/svg">
<path d="M101.506 9.64304C116.29 13.1937 128.448 28.7482 128.259 44.0845C128.074 59.3874 115.542 74.4722 105.054 88.9892C94.5967 103.508 86.2439 117.468 75.6718 118.208C65.0867 118.937 52.2988 106.43 41.7174 98.134C31.1027 89.8399 22.7185 85.7529 15.4966 78.463C8.27482 71.173 2.24493 60.6764 3.65677 51.2782C5.06861 41.8801 13.9259 33.586 23.1897 29.0607C32.4849 24.504 42.1553 23.7181 55.7138 19.0985C69.2723 14.479 86.7078 6.06649 101.506 9.64304Z" fill="white"/>
<path d="M94.0239 80.6193L74.6961 42.433C74.1066 42.0891 71.7394 40.5671 71.7394 40.5671" stroke="#CD0F0F" stroke-width="1.78654" stroke-linecap="round" stroke-linejoin="round"/>
<path d="M73.31 45.4567C73.079 44.6929 72.386 43.1191 72.386 43.1191C71.9629 43.0932 69.0172 41.5768 69.0172 41.5768" stroke="#CD0F0F" stroke-width="1.78654" stroke-linecap="round" stroke-linejoin="round"/>
<path d="M68.1746 41.7173L77.3331 37.9781" stroke="#CD0F0F" stroke-width="1.78654" stroke-linecap="round" stroke-linejoin="round"/>
<path d="M2.39275 100.048L0.0384521 102.225L5.68952 109.64L7.43769 108.093L4.74706 101.494L2.39275 100.048Z" fill="black"/>
<path d="M48.0244 93.2796L46.0785 96.8672L50.9091 104.394L52.9437 103.869L51.6094 94.0452L48.0244 93.2796Z" fill="black"/>
<path d="M70.0466 42.433C71.6346 42.433 72.922 41.4717 72.922 40.286C72.922 39.1002 71.6346 38.1389 70.0466 38.1389C68.4585 38.1389 67.1711 39.1002 67.1711 40.286C67.1711 41.4717 68.4585 42.433 70.0466 42.433Z" fill="#D37C59"/>
<path d="M31.6736 42.5533C30.3801 44.4026 1.95288 100.266 1.95288 100.266L5.16833 102.23L42.6819 61.6048L31.6736 42.5533Z" fill="#56CAD8"/>
<path d="M56.1648 28.9978C56.904 29.6303 59.0698 32.0899 59.7776 32.5374C60.4853 32.9849 68.6034 38.052 70.1261 38.4996C71.6489 38.9471 68.4131 40.2786 68.4131 40.2786C68.4131 40.2786 57.8372 37.9318 57.0555 37.4103C56.2738 36.8888 51.641 33.1569 51.641 32.1564C51.641 31.156 56.1648 28.9978 56.1648 28.9978Z" fill="#D37C59"/>
<path d="M49.9686 24.1896C52.3284 21.6283 56.9372 27.7033 56.8375 28.5965C56.7377 29.4897 53.4779 33.2364 51.4118 33.2364C50.7928 33.2364 48.311 25.989 49.9686 24.1896Z" fill="#FCC486"/>
<path d="M31.3078 43.1154C30.7534 43.8551 28.3511 49.7729 28.3511 51.8071C28.3511 65.6769 49.015 69.2756 51.9828 69.2756C51.5541 71.2118 47.0081 93.2037 47.2224 93.6864C47.4368 94.1691 51.2085 95.1548 51.9828 95.0272C54.9395 93.4164 64.4842 70.9862 63.7672 67.7962C62.7601 63.3264 46.9508 50.2537 44.6667 48.9518C42.3826 47.6499 31.3078 43.1154 31.3078 43.1154Z" fill="#74D5DE"/>
<path d="M44.9587 18.4568C60.8641 18.4568 48.5419 48.3748 45.7441 49.9966C43.8961 51.0655 32.4388 47.0008 31.2117 42.9231C30.7922 41.5305 36.1698 18.4568 44.9587 18.4568Z" fill="#FED385"/>
<path d="M67.6258 43.4446C69.2139 43.4446 70.5012 42.4833 70.5012 41.2976C70.5012 40.1118 69.2139 39.1505 67.6258 39.1505C66.0377 39.1505 64.7504 40.1118 64.7504 41.2976C64.7504 42.4833 66.0377 43.4446 67.6258 43.4446Z" fill="#DE8E68"/>
<path d="M39.8822 32.2711C39.921 33.7801 40.4255 40.7058 41.052 40.9147C48.6286 43.4446 61.7491 42.3295 64.0147 42.1778C66.2803 42.0262 67.7328 40.4302 67.6201 40.0511C67.5074 39.672 60.3816 36.7649 48.0114 36.4228C47.7822 35.0247 48.3311 30.7991 47.7656 30.4218C47.2001 30.0445 39.8822 32.2711 39.8822 32.2711Z" fill="#DE8E68"/>
<path d="M41.9872 19.7384C48.5678 18.3921 49.7486 30.6863 49.1166 31.5924C48.4846 32.4986 40.1005 33.7801 39.0065 32.9886C37.9125 32.1971 36.9977 20.7574 41.9872 19.7384Z" fill="#FED892"/>
<path d="M46.4648 10.8118C46.1617 11.9695 44.0938 18.5974 44.2214 18.9487C44.3489 19.3001 47.1947 20.8498 48.2869 20.6797C48.3294 20.1748 48.7932 17.4711 49.7431 15.8456C50.6929 14.2201 46.4648 10.8118 46.4648 10.8118Z" fill="#D37C59"/>
<path d="M54.8913 10.845C55.2472 7.31917 53.6379 4.2691 51.2968 4.03246C48.9558 3.79581 46.7694 6.4622 46.4135 9.988C46.0577 13.5138 47.667 16.5639 50.0081 16.8005C52.3491 17.0372 54.5355 14.3708 54.8913 10.845Z" fill="#DE8E68"/>
<path d="M46.0047 10.8118C45.5205 10.5455 44.6021 8.97729 44.6021 7.52004C44.6021 5.23985 46.8732 3.94164 48.4052 3.26664C49.5638 2.74699 50.5488 0.333649 53.1877 0.333649C55.2925 0.333649 55.4329 2.4548 56.4013 2.53617C58.9108 2.74514 60.319 2.83945 60.319 4.66472C60.319 6.00546 58.6004 9.65783 55.0948 9.65783C55.0948 8.98099 54.8675 7.29997 54.4923 6.49183C52.3857 6.59724 50.6708 9.30647 47.7491 9.29537C47.1227 9.28428 46.0047 10.8118 46.0047 10.8118Z" fill="#FD8369"/>
<path d="M47.1078 11.9473C47.8243 11.9473 48.4051 11.2377 48.4051 10.3624C48.4051 9.48712 47.8243 8.77756 47.1078 8.77756C46.3914 8.77756 45.8105 9.48712 45.8105 10.3624C45.8105 11.2377 46.3914 11.9473 47.1078 11.9473Z" fill="#DE8E68"/>
<path d="M140.506 95.029H80.129V81.9193C83.4313 81.6272 130.373 77.1888 130.373 77.1888V48.6855L73.3101 45.4566L80.129 81.923" stroke="#CD0F0F" stroke-width="1.78654" stroke-linecap="round" stroke-linejoin="round"/>
<path d="M84.9818 102.273C86.529 102.273 87.7833 101.018 87.7833 99.4692C87.7833 97.9208 86.529 96.6656 84.9818 96.6656C83.4346 96.6656 82.1803 97.9208 82.1803 99.4692C82.1803 101.018 83.4346 102.273 84.9818 102.273Z" stroke="#CD0F0F" stroke-width="1.78654" stroke-linecap="round" stroke-linejoin="round"/>
<path d="M139.698 102.273C141.245 102.273 142.5 101.018 142.5 99.4692C142.5 97.9208 141.245 96.6656 139.698 96.6656C138.151 96.6656 136.896 97.9208 136.896 99.4692C136.896 101.018 138.151 102.273 139.698 102.273Z" stroke="#CD0F0F" stroke-width="1.78654" stroke-linecap="round" stroke-linejoin="round"/>
<path d="M75.5387 57.3717H130.373" stroke="#CD0F0F" stroke-width="1.78654" stroke-linecap="round" stroke-linejoin="round"/>
<path d="M77.054 65.4753H130.373" stroke="#CD0F0F" stroke-width="1.78654" stroke-linecap="round" stroke-linejoin="round"/>
<path d="M63.5381 43.6092L68.1746 41.7173" stroke="#CD0F0F" stroke-width="1.78654" stroke-linecap="round" stroke-linejoin="round"/>
<path d="M81.6943 65.4753C81.0937 63.7758 74.7219 45.5324 74.7219 45.5324" stroke="#CD0F0F" stroke-width="1.78654" stroke-linecap="round" stroke-linejoin="round"/>
</svg>
