<svg width="64" height="64" viewBox="0 0 64 64" fill="none" xmlns="http://www.w3.org/2000/svg">
<path d="M58.1082 57.9625H5.89175C2.67375 57.9625 0 55.3629 0 52.0708V17.9293C0 14.7113 2.59962 12.0375 5.89175 12.0375H58.1082C61.3262 12.0375 64 14.6372 64 17.9293V52.0709C64 55.2888 61.4004 57.9625 58.1082 57.9625Z" fill="#DFDFDF"/>
<path d="M58.1082 12.0375H32V57.9625H58.1082C61.4004 57.9625 64 55.2888 64 52.0708V17.9293C64 14.637 61.3263 12.0375 58.1082 12.0375Z" fill="#DFDFDF"/>
<path d="M64 31.3751H4.73152e-07C0 30.0626 1.18288e-07 29.6961 1.18288e-07 27.6251C1.18288e-07 25.5541 0 26.1251 0 23.8751H64C64 25.5001 64 25.6791 64 27.7501C64 29.8211 64 29.1251 64 31.3751Z" fill="#747474"/>
</svg>
