<svg width="16" height="19" viewBox="0 0 16 19" fill="none" xmlns="http://www.w3.org/2000/svg">
<path d="M15.7149 14.301C15.6979 14.283 13.9979 12.447 13.9849 7.981C13.9788 6.741 13.5893 5.53324 12.8698 4.52332C12.1502 3.51341 11.1359 2.75078 9.96594 2.34L9.99994 2C9.99994 0.897 9.10394 0 7.99994 0C6.89594 0 5.99994 0.897 5.99994 2L6.03394 2.338C3.69794 3.154 2.01494 5.374 2.01494 7.984C2.01494 12.446 0.30394 14.28 0.29394 14.29C0.154137 14.43 0.0589122 14.6083 0.0202714 14.8023C-0.0183694 14.9964 0.0013033 15.1975 0.076809 15.3804C0.152315 15.5633 0.280274 15.7197 0.444555 15.83C0.608836 15.9402 0.802085 15.9994 0.99994 16H4.14294C4.58994 17.72 6.14194 19 7.99994 19C9.85794 19 11.4099 17.72 11.8569 16H14.9999C15.3999 16 15.7579 15.757 15.9149 15.39C16.0719 15.023 15.9909 14.591 15.7149 14.301ZM7.99994 4C10.1889 4 11.9779 5.789 11.9839 7.987C11.9859 8.715 12.0299 9.383 12.1019 10H3.90194C3.97294 9.383 4.01494 8.714 4.01494 7.984C4.01653 6.92769 4.43692 5.91512 5.18393 5.16829C5.93095 4.42146 6.94363 4.00132 7.99994 4ZM7.99994 17C7.65043 16.9989 7.30734 16.906 7.0051 16.7305C6.70285 16.555 6.45208 16.303 6.27794 16H9.72094C9.54712 16.3031 9.29655 16.5551 8.99445 16.7306C8.69234 16.9062 8.34934 16.9991 7.99994 17ZM2.81394 14C3.16594 13.264 3.51894 12.269 3.75194 11H12.2539C12.4879 12.269 12.8419 13.264 13.1919 14H2.81394Z" fill="#747474"/>
</svg>
