<svg width="144" height="171" viewBox="0 0 144 171" fill="none" xmlns="http://www.w3.org/2000/svg">
<path d="M23.0061 24.8397C8.99812 33.6503 -0.922984 49.4771 0.628464 64.3955C2.21462 79.2791 15.2774 93.285 19.7644 110.939C24.2513 128.593 20.2032 149.954 27.6972 160.82C35.1543 171.723 54.2351 172.195 69.7822 167.401C85.3743 162.643 97.4572 152.62 110.889 143.642C124.322 134.696 139.079 126.766 142.549 115.324C146.02 103.917 138.195 88.99 129.689 77.8624C121.217 66.69 112.004 59.3328 102.487 49.0402C92.9702 38.7476 83.1145 25.5501 69.1412 19.8485C55.1353 14.1429 37.0099 15.9985 23.0061 24.8397Z" fill="white"/>
<path d="M61.6085 123.071L64.5685 70.3012" stroke="#7D7E8F" stroke-width="1.78654" stroke-miterlimit="10" stroke-linecap="round"/>
<path d="M61.6085 123.071L97.3327 75.7108" stroke="#7D7E8F" stroke-width="1.78654" stroke-miterlimit="10" stroke-linecap="round"/>
<path d="M61.6085 123.071L99.5782 40.395" stroke="#7D7E8F" stroke-width="1.78654" stroke-miterlimit="10" stroke-linecap="round"/>
<path d="M122.841 32.3096C126.734 21.6087 123.129 10.4747 114.79 7.44105C106.45 4.40744 96.5342 10.623 92.6415 21.324C88.7488 32.0249 92.3535 43.1589 100.693 46.1925C109.032 49.2262 118.948 43.0106 122.841 32.3096Z" fill="#FD8369"/>
<path d="M82.9446 55.4941C83.737 44.1347 77.203 34.4256 68.3505 33.8081C59.4981 33.1906 51.6795 41.8987 50.8872 53.258C50.0948 64.6174 56.6288 74.3265 65.4813 74.944C74.3337 75.5615 82.1523 66.8535 82.9446 55.4941Z" fill="#D37C59"/>
<path d="M125.085 64.6504C130.611 53.2963 127.324 40.3127 117.744 35.6506C108.164 30.9885 95.9187 36.4133 90.3933 47.7674C84.8678 59.1214 88.1546 72.105 97.7346 76.7671C107.315 81.4292 119.56 76.0044 125.085 64.6504Z" fill="#74D5DE"/>
<path d="M93.8112 22.4792C95.4451 11.739 89.5592 1.93533 80.6647 0.582228C71.7702 -0.770879 63.2353 6.83892 61.6014 17.5792C59.9675 28.3195 65.8534 38.1231 74.7478 39.4762C83.6423 40.8293 92.1773 33.2195 93.8112 22.4792Z" fill="#74D5DE"/>
<path d="M98.7784 50.7963C101.837 40.7155 98.2528 30.7033 90.7721 28.4333C83.2913 26.1634 74.7473 32.4952 71.6883 42.576C68.6294 52.6568 72.214 62.669 79.6947 64.939C87.1754 67.2089 95.7195 60.877 98.7784 50.7963Z" fill="#FED385"/>
<path d="M65.4504 74.3268L67.2877 78.6423C67.3411 78.769 67.3604 78.9075 67.3436 79.044C67.3268 79.1805 67.2744 79.3102 67.1917 79.4201C67.1091 79.53 66.999 79.6164 66.8726 79.6704C66.7461 79.7245 66.6077 79.7445 66.4711 79.7283L61.8188 79.1546C61.682 79.1381 61.5519 79.0857 61.4417 79.0028C61.3316 78.9199 61.2452 78.8094 61.1914 78.6825C61.1376 78.5556 61.1181 78.4167 61.1351 78.2799C61.1521 78.1431 61.2048 78.0132 61.2881 77.9033L64.1113 74.1614C64.1945 74.0536 64.3043 73.9693 64.43 73.9168C64.5557 73.8644 64.6928 73.8456 64.828 73.8623C64.9632 73.879 65.0917 73.9306 65.2008 74.012C65.3099 74.0935 65.396 74.202 65.4504 74.3268Z" fill="#D37C59"/>
<path d="M61.6086 123.071L54.8721 47.3357" stroke="#7D7E8F" stroke-width="1.78654" stroke-miterlimit="10" stroke-linecap="round"/>
<path d="M61.6085 123.071L79.5727 63.0543" stroke="#7D7E8F" stroke-width="1.78654" stroke-miterlimit="10" stroke-linecap="round"/>
<path d="M80.2381 63.1093L81.3078 67.6759C81.3389 67.81 81.3341 67.9498 81.294 68.0814C81.2539 68.213 81.1798 68.3318 81.0793 68.4257C80.9787 68.5196 80.8552 68.5854 80.7212 68.6165C80.5872 68.6476 80.4473 68.6428 80.3157 68.6027L75.8247 67.2411C75.6929 67.2012 75.5739 67.1273 75.4798 67.0268C75.3857 66.9263 75.3196 66.8028 75.2884 66.6688C75.2572 66.5347 75.2618 66.3947 75.3018 66.2629C75.3418 66.1312 75.4159 66.0123 75.5164 65.9183L78.9378 62.7154C79.0382 62.621 79.1617 62.5548 79.2958 62.5234C79.43 62.492 79.57 62.4965 79.7019 62.5364C79.8337 62.5764 79.9527 62.6504 80.0468 62.7509C80.141 62.8515 80.207 62.9751 80.2381 63.1093Z" fill="#FED385"/>
<path d="M98.5392 74.9168L98.2126 79.5915C98.2036 79.7296 98.1582 79.8628 98.0811 79.9777C98.0039 80.0925 97.8978 80.1849 97.7734 80.2455C97.649 80.306 97.5108 80.3326 97.3728 80.3224C97.2348 80.3122 97.1019 80.2657 96.9878 80.1876L93.1091 77.5665C92.9948 77.4895 92.9029 77.3837 92.8425 77.2599C92.7821 77.136 92.7554 76.9984 92.7651 76.861C92.7749 76.7235 92.8207 76.5911 92.8979 76.477C92.9751 76.3629 93.0811 76.2711 93.2051 76.211L97.4164 74.1574C97.54 74.0977 97.6771 74.0716 97.8139 74.0815C97.9508 74.0915 98.0827 74.1372 98.1963 74.214C98.31 74.2909 98.4015 74.3963 98.4616 74.5196C98.5218 74.6429 98.5486 74.7799 98.5392 74.9168Z" fill="#74D5DE"/>
<path d="M55.0717 49.6121C65.6915 48.7576 73.4796 37.8616 72.4669 25.2752C71.4542 12.6887 62.0242 3.17805 51.4044 4.0325C40.7846 4.88695 32.9965 15.783 34.0092 28.3694C35.0218 40.9559 44.4518 50.4666 55.0717 49.6121Z" fill="#FD8369"/>
<path d="M55.4354 47.8317L58.0892 51.6899C58.1663 51.8033 58.2124 51.9348 58.2229 52.0715C58.2334 52.2081 58.208 52.3452 58.1492 52.469C58.0904 52.5928 58.0002 52.6991 57.8876 52.7773C57.7751 52.8554 57.644 52.9028 57.5074 52.9147L52.8429 53.3005C52.7057 53.3112 52.5682 53.2856 52.444 53.2264C52.3198 53.1672 52.2133 53.0765 52.1352 52.9632C52.0571 52.85 52.0101 52.7182 51.9988 52.5811C51.9876 52.444 52.0126 52.3063 52.0712 52.1819L54.082 47.9481C54.1403 47.8233 54.2304 47.7161 54.3433 47.6372C54.4562 47.5583 54.5879 47.5106 54.7251 47.4988C54.8623 47.487 55.0002 47.5116 55.1249 47.57C55.2496 47.6284 55.3567 47.7187 55.4354 47.8317Z" fill="#FD8369"/>
<path d="M42.7745 160.673L87.4781 169.557L95.4362 129.513L50.7326 120.629L42.7745 160.673Z" fill="#FF795B"/>
<path d="M52.5366 134.513L97.2388 143.397L95.4444 129.511L50.7402 120.627L52.5366 134.513Z" fill="#CD0F0F"/>
<path d="M17.1841 155.584L42.7786 160.67L50.7366 120.625L25.1422 115.539L17.1841 155.584Z" fill="#CD0F0F"/>
<path d="M43.8975 132.794L18.3517 127.717L25.1964 115.548L50.7402 120.627L43.8975 132.794Z" fill="#FF795B"/>
<path d="M59.9389 164.084L70.3145 166.146L72.6621 154.332L62.2865 152.27L59.9389 164.084Z" fill="#CD0F0F"/>
<path d="M48.7347 145.176L64.3601 148.281L66.0739 139.657L50.4485 136.552L48.7347 145.176Z" fill="#F3F3F3"/>
<path d="M59.6636 146.037L63.1956 146.739L64.4406 140.474L60.9087 139.772L59.6636 146.037Z" fill="#FD8369"/>
<path d="M51.0907 139.097L59.9165 140.851L60.1537 139.657L51.3278 137.903L51.0907 139.097Z" fill="#FD8369"/>
<path d="M50.6825 141.138L59.5083 142.892L59.7455 141.699L50.9196 139.945L50.6825 141.138Z" fill="#FD8369"/>
</svg>
