<?xml version="1.0" standalone="no"?>
<!DOCTYPE svg PUBLIC "-//W3C//DTD SVG 20010904//EN"
 "http://www.w3.org/TR/2001/REC-SVG-20010904/DTD/svg10.dtd">
<svg version="1.0" xmlns="http://www.w3.org/2000/svg"
 width="1280.000000pt" height="1280.000000pt" viewBox="0 0 1280.000000 1280.000000"
 preserveAspectRatio="xMidYMid meet">

<g transform="translate(0.000000,1280.000000) scale(0.100000,-0.100000)"
fill="#000000" stroke="none">
<path d="M7470 9060 c0 -583 -2 -1060 -6 -1060 -3 0 -76 -11 -162 -25 -1896
-306 -3404 -1222 -4413 -2680 -579 -837 -985 -1800 -1244 -2952 -25 -108 -43
-198 -42 -200 2 -2 30 34 63 80 32 45 111 147 175 227 1008 1260 2275 1987
3959 2274 433 74 1048 126 1487 126 l183 0 2 -1087 3 -1086 1862 1862 1862
1862 -1860 1860 c-1022 1022 -1861 1859 -1864 1859 -3 0 -5 -477 -5 -1060z"/>
</g>
</svg>
