<svg width="22" height="21" viewBox="0 0 22 21" fill="none" xmlns="http://www.w3.org/2000/svg">
<path d="M21.262 9.46818C17.872 6.61418 11.716 1.29718 11.655 1.24318L11 0.680176L10.348 1.24318C10.286 1.29618 4.127 6.61118 0.688 9.49118C0.474148 9.68058 0.302418 9.91276 0.183908 10.1727C0.0653984 10.4326 0.00274591 10.7145 0 11.0002C0 11.5306 0.210714 12.0393 0.585786 12.4144C0.960859 12.7895 1.46957 13.0002 2 13.0002H3V19.0002C3 19.5306 3.21071 20.0393 3.58579 20.4144C3.96086 20.7895 4.46957 21.0002 5 21.0002H17C17.5304 21.0002 18.0391 20.7895 18.4142 20.4144C18.7893 20.0393 19 19.5306 19 19.0002V13.0002H20C20.5304 13.0002 21.0391 12.7895 21.4142 12.4144C21.7893 12.0393 22 11.5306 22 11.0002C22 10.4022 21.725 9.83918 21.262 9.46818ZM13 19.0002H9V14.0002H13V19.0002ZM17 11.0002L17.002 19.0002H14V13.0002H8V19.0002H5V11.0002H1.999C4.764 8.68818 9.314 4.77318 11 3.32018C12.686 4.77318 17.234 8.68718 20 11.0012L17 11.0002Z" fill="#747474"/>
</svg>
