<svg width="12" height="10" viewBox="0 0 12 10" fill="none" xmlns="http://www.w3.org/2000/svg">
<path d="M10.6667 0.666504H1.33333C0.979711 0.666504 0.640573 0.80698 0.390524 1.05703C0.140476 1.30708 0 1.64622 0 1.99984V7.99984C0 8.35346 0.140476 8.6926 0.390524 8.94265C0.640573 9.19269 0.979711 9.33317 1.33333 9.33317H10.6667C11.0203 9.33317 11.3594 9.19269 11.6095 8.94265C11.8595 8.6926 12 8.35346 12 7.99984V1.99984C12 1.64622 11.8595 1.30708 11.6095 1.05703C11.3594 0.80698 11.0203 0.666504 10.6667 0.666504ZM4.21067 5.54384L5.27867 6.47717C5.482 6.6545 5.73933 6.7425 6 6.7425C6.26067 6.7425 6.518 6.65384 6.72133 6.47717L7.78933 5.54384L7.76467 5.5685L10.1953 7.99917H1.80467L4.23533 5.5685L4.21067 5.54384ZM1.33333 7.5285V3.0265L3.73467 5.12717L1.33333 7.5285ZM8.26533 5.12717L10.6667 3.0265V7.5265L8.26533 5.12717ZM10.6667 1.99984V2.13984L6.28267 5.97584C6.20237 6.03988 6.10271 6.07475 6 6.07475C5.89729 6.07475 5.79763 6.03988 5.71733 5.97584L1.33333 2.13984V1.99984H10.6667Z" fill="#747474"/>
</svg>
