<svg width="19" height="16" viewBox="0 0 19 16" fill="none" xmlns="http://www.w3.org/2000/svg">
<path d="M16 0H3C1.35 0 0 1.35 0 3V10C0 11.65 1.35 13 3 13H4V16L7 13H16C17.65 13 19 11.65 19 10V3C19 1.35 17.65 0 16 0ZM17 10C17 10.542 16.542 11 16 11H3C2.458 11 2 10.542 2 10V3C2 2.458 2.458 2 3 2H16C16.542 2 17 2.458 17 3V10ZM5 8.5C4.73729 8.49993 4.47717 8.44812 4.23448 8.34753C3.99179 8.24693 3.7713 8.09952 3.58558 7.91371C3.39986 7.7279 3.25256 7.50733 3.15209 7.2646C3.05161 7.02186 2.99993 6.76171 3 6.499C3.00007 6.23629 3.05187 5.97617 3.15247 5.73348C3.25307 5.49079 3.40048 5.2703 3.58629 5.08458C3.7721 4.89886 3.99267 4.75156 4.2354 4.65109C4.47814 4.55061 4.73829 4.49893 5.001 4.499C5.53157 4.49913 6.04035 4.71003 6.41542 5.08529C6.79049 5.46055 7.00113 5.96943 7.001 6.5C7.00087 7.03057 6.78997 7.53935 6.41471 7.91442C6.03945 8.28949 5.53057 8.50013 5 8.5ZM5 5.5C4.73478 5.5 4.48043 5.60536 4.29289 5.79289C4.10536 5.98043 4 6.23478 4 6.5C4 6.76522 4.10536 7.01957 4.29289 7.20711C4.48043 7.39464 4.73478 7.5 5 7.5C5.26522 7.5 5.51957 7.39464 5.70711 7.20711C5.89464 7.01957 6 6.76522 6 6.5C6 6.23478 5.89464 5.98043 5.70711 5.79289C5.51957 5.60536 5.26522 5.5 5 5.5ZM9.5 8.5C9.23729 8.49993 8.97717 8.44812 8.73448 8.34753C8.49179 8.24693 8.2713 8.09952 8.08558 7.91371C7.89986 7.7279 7.75256 7.50733 7.65209 7.2646C7.55161 7.02186 7.49993 6.76171 7.5 6.499C7.50007 6.23629 7.55188 5.97617 7.65247 5.73348C7.75307 5.49079 7.90048 5.2703 8.08629 5.08458C8.2721 4.89886 8.49267 4.75156 8.7354 4.65109C8.97814 4.55061 9.23829 4.49893 9.501 4.499C10.0316 4.49913 10.5403 4.71003 10.9154 5.08529C11.2905 5.46055 11.5011 5.96943 11.501 6.5C11.5009 7.03057 11.29 7.53935 10.9147 7.91442C10.5395 8.28949 10.0306 8.50013 9.5 8.5ZM9.5 5.5C9.23478 5.5 8.98043 5.60536 8.79289 5.79289C8.60536 5.98043 8.5 6.23478 8.5 6.5C8.5 6.76522 8.60536 7.01957 8.79289 7.20711C8.98043 7.39464 9.23478 7.5 9.5 7.5C9.76522 7.5 10.0196 7.39464 10.2071 7.20711C10.3946 7.01957 10.5 6.76522 10.5 6.5C10.5 6.23478 10.3946 5.98043 10.2071 5.79289C10.0196 5.60536 9.76522 5.5 9.5 5.5ZM14 8.5C13.7373 8.49993 13.4772 8.44812 13.2345 8.34753C12.9918 8.24693 12.7713 8.09952 12.5856 7.91371C12.3999 7.7279 12.2526 7.50733 12.1521 7.2646C12.0516 7.02186 11.9999 6.76171 12 6.499C12.0001 6.23629 12.0519 5.97617 12.1525 5.73348C12.2531 5.49079 12.4005 5.2703 12.5863 5.08458C12.7721 4.89886 12.9927 4.75156 13.2354 4.65109C13.4781 4.55061 13.7383 4.49893 14.001 4.499C14.5316 4.49913 15.0403 4.71003 15.4154 5.08529C15.7905 5.46055 16.0011 5.96943 16.001 6.5C16.0009 7.03057 15.79 7.53935 15.4147 7.91442C15.0395 8.28949 14.5306 8.50013 14 8.5ZM14 5.5C13.7348 5.5 13.4804 5.60536 13.2929 5.79289C13.1054 5.98043 13 6.23478 13 6.5C13 6.76522 13.1054 7.01957 13.2929 7.20711C13.4804 7.39464 13.7348 7.5 14 7.5C14.2652 7.5 14.5196 7.39464 14.7071 7.20711C14.8946 7.01957 15 6.76522 15 6.5C15 6.23478 14.8946 5.98043 14.7071 5.79289C14.5196 5.60536 14.2652 5.5 14 5.5Z" fill="#747474"/>
</svg>
