<svg width="15" height="15" viewBox="0 0 15 15" fill="none" xmlns="http://www.w3.org/2000/svg">
<path d="M13.0014 2.44784L11.8047 1.2525C11.4274 0.874504 10.9247 0.666504 10.3907 0.666504C9.85675 0.666504 9.35408 0.874504 8.97675 1.2525L7.91941 2.30984C7.5448 2.68507 7.33439 3.19362 7.33439 3.72384C7.33439 4.25406 7.5448 4.76261 7.91941 5.13784L8.83875 6.05717L6.05741 8.8385L5.13808 7.91917C4.76075 7.54117 4.25808 7.33317 3.72408 7.33317C3.19008 7.33317 2.68741 7.54117 2.31008 7.91917L1.25275 8.9765C0.87813 9.35173 0.667725 9.86028 0.667725 10.3905C0.667725 10.9207 0.87813 11.4293 1.25275 11.8045L2.44875 12.9998C2.75875 13.3098 3.64608 14.0298 5.19275 14.0298C7.03541 14.0298 8.98875 13.0105 11.0001 10.9998C15.1634 6.83584 14.2167 3.66517 13.0014 2.44784ZM8.86208 3.2525L9.91941 2.19517C9.98118 2.13305 10.0546 2.08375 10.1355 2.05011C10.2164 2.01647 10.3031 1.99915 10.3907 1.99915C10.4784 1.99915 10.5651 2.01647 10.646 2.05011C10.7269 2.08375 10.8003 2.13305 10.8621 2.19517L11.5841 2.9165L9.58341 4.9165L8.86208 4.19517C8.80012 4.13331 8.75096 4.05984 8.71742 3.97897C8.68388 3.89809 8.66661 3.81139 8.66661 3.72384C8.66661 3.63628 8.68388 3.54959 8.71742 3.46871C8.75096 3.38783 8.80012 3.31436 8.86208 3.2525ZM2.19541 10.8618C2.13345 10.8 2.08429 10.7265 2.05075 10.6456C2.01721 10.5648 1.99995 10.4781 1.99995 10.3905C1.99995 10.3029 2.01721 10.2163 2.05075 10.1354C2.08429 10.0545 2.13345 9.98103 2.19541 9.91917L3.25275 8.86184C3.31452 8.79971 3.38796 8.75041 3.46884 8.71677C3.54973 8.68313 3.63647 8.66581 3.72408 8.66581C3.81168 8.66581 3.89843 8.68313 3.97931 8.71677C4.0602 8.75041 4.13364 8.79971 4.19541 8.86184L4.91675 9.58317L2.91741 11.5832L2.19541 10.8618ZM10.0574 10.0572C8.00208 12.1118 6.35675 12.6965 5.19275 12.6965C4.29341 12.6965 3.68141 12.3478 3.39141 12.0572C3.38875 12.0545 5.38808 10.0545 5.38808 10.0545L5.58608 10.2525C5.64785 10.3146 5.72129 10.3639 5.80218 10.3976C5.88307 10.4312 5.96981 10.4485 6.05741 10.4485C6.14502 10.4485 6.23176 10.4312 6.31265 10.3976C6.39354 10.3639 6.46698 10.3146 6.52875 10.2525L10.2527 6.5285C10.3147 6.46665 10.3639 6.39318 10.3974 6.3123C10.4309 6.23142 10.4482 6.14473 10.4482 6.05717C10.4482 5.96961 10.4309 5.88292 10.3974 5.80204C10.3639 5.72117 10.3147 5.6477 10.2527 5.58584L10.0547 5.38784L12.0554 3.38784C12.7241 4.05717 13.7001 6.41384 10.0574 10.0572Z" fill="#747474"/>
</svg>
