<svg width="19" height="16" viewBox="0 0 19 16" fill="none" xmlns="http://www.w3.org/2000/svg">
<path d="M1.00001 15.4815C0.868652 15.4816 0.738556 15.4559 0.617171 15.4056C0.495786 15.3554 0.385495 15.2818 0.29261 15.1889C0.199726 15.096 0.126071 14.9857 0.075863 14.8643C0.0256549 14.743 -0.000121184 14.6129 1.03722e-05 14.4815V13.4815C-0.00331233 11.1759 0.791767 8.94024 2.25014 7.15445C3.70852 5.36867 5.74022 4.14292 8.00001 3.6855V1.9815C8.00001 1.4475 8.20801 0.9455 8.58501 0.5675C9.34101 -0.1895 10.66 -0.1885 11.414 0.5665L17.702 6.7695C17.7968 6.86225 17.8722 6.97301 17.9236 7.09528C17.975 7.21755 18.0015 7.34886 18.0015 7.4815C18.0015 7.61414 17.975 7.74545 17.9236 7.86772C17.8722 7.98999 17.7968 8.10075 17.702 8.1935L11.409 14.4005C10.663 15.1465 9.34201 15.1515 8.58601 14.3955C8.39966 14.2103 8.25191 13.9899 8.15132 13.7472C8.05073 13.5045 7.9993 13.2442 8.00001 12.9815V11.5445C5.50501 11.7455 3.47701 12.5295 1.83601 15.0285C1.74521 15.1675 1.62124 15.2816 1.4753 15.3607C1.32935 15.4398 1.16601 15.4813 1.00001 15.4815ZM9.00001 9.4925L10 9.4825V12.9815L15.576 7.4815L10 1.9855V5.4825C10 5.4825 9.61601 5.4785 9.10901 5.5345C7.4737 5.71415 5.93385 6.39471 4.70016 7.48305C3.46646 8.5714 2.59919 10.0144 2.21701 11.6145C4.33801 9.8865 6.76801 9.5485 9.00001 9.4925Z" fill="#1C1720"/>
</svg>
